<svg id="ewfrn8maxw81" xmlns="http://www.w3.org/2000/svg" xmlns:xlink="http://www.w3.org/1999/xlink" viewBox="0 0 300 300" shape-rendering="geometricPrecision" text-rendering="geometricPrecision"><style><![CDATA[#ewfrn8maxw810_to {animation: ewfrn8maxw810_to__to 1100ms linear infinite alternate forwards}@keyframes ewfrn8maxw810_to__to { 0% {transform: translate(549.110746px,1149.798096px);animation-timing-function: cubic-bezier(0.560000,0,0.440000,0.995000)} 90.909091% {transform: translate(550.186759px,1149.163081px)} 100% {transform: translate(550.186759px,1149.163081px)} }#ewfrn8maxw810_tr {animation: ewfrn8maxw810_tr__tr 1100ms linear infinite alternate forwards}@keyframes ewfrn8maxw810_tr__tr { 0% {transform: rotate(0deg);animation-timing-function: cubic-bezier(0.560000,0,0.440000,0.995000)} 90.909091% {transform: rotate(-29.177180deg)} 100% {transform: rotate(-29.177180deg)} }#ewfrn8maxw810_ts {animation: ewfrn8maxw810_ts__ts 1100ms linear infinite alternate forwards}@keyframes ewfrn8maxw810_ts__ts { 0% {transform: scale(1,1);animation-timing-function: cubic-bezier(0.560000,0,0.440000,0.995000)} 90.909091% {transform: scale(0.946156,0.893429)} 100% {transform: scale(0.946156,0.893429)} }#ewfrn8maxw812_to {animation: ewfrn8maxw812_to__to 1100ms linear infinite alternate forwards}@keyframes ewfrn8maxw812_to__to { 0% {transform: translate(549px,1149.600000px);animation-timing-function: cubic-bezier(0.560000,0,0.440000,0.995000)} 90.909091% {transform: translate(547.476021px,1148.702454px)} 100% {transform: translate(547.476021px,1148.702454px)} }#ewfrn8maxw812_tr {animation: ewfrn8maxw812_tr__tr 1100ms linear infinite alternate forwards}@keyframes ewfrn8maxw812_tr__tr { 0% {transform: rotate(0deg);animation-timing-function: cubic-bezier(0.560000,0,0.440000,0.995000)} 90.909091% {transform: rotate(29.768502deg)} 100% {transform: rotate(29.768502deg)} }#ewfrn8maxw812_ts {animation: ewfrn8maxw812_ts__ts 1100ms linear infinite alternate forwards}@keyframes ewfrn8maxw812_ts__ts { 0% {transform: scale(1,1);animation-timing-function: cubic-bezier(0.560000,0,0.440000,0.995000)} 90.909091% {transform: scale(1,0.901791)} 100% {transform: scale(1,0.901791)} }#ewfrn8maxw820_to {animation: ewfrn8maxw820_to__to 1100ms linear infinite alternate forwards}@keyframes ewfrn8maxw820_to__to { 0% {transform: translate(164.861822px,199.999000px);animation-timing-function: cubic-bezier(0.560000,0,0.440000,0.995000)} 90.909091% {transform: translate(194.998523px,199.999000px)} 100% {transform: translate(194.998523px,199.999000px)} }#ewfrn8maxw820_tr {animation: ewfrn8maxw820_tr__tr 1100ms linear infinite alternate forwards}@keyframes ewfrn8maxw820_tr__tr { 0% {transform: rotate(90deg);animation-timing-function: cubic-bezier(0.560000,0,0.440000,0.995000)} 90.909091% {transform: rotate(180deg)} 100% {transform: rotate(180deg)} }#ewfrn8maxw820_ts {animation: ewfrn8maxw820_ts__ts 1100ms linear infinite alternate forwards}@keyframes ewfrn8maxw820_ts__ts { 0% {transform: scale(1,0.531117);animation-timing-function: cubic-bezier(0.560000,0,0.440000,0.995000)} 90.909091% {transform: scale(1,0.999939)} 100% {transform: scale(1,0.999939)} }#ewfrn8maxw826_to {animation: ewfrn8maxw826_to__to 1100ms linear infinite alternate forwards}@keyframes ewfrn8maxw826_to__to { 0% {transform: translate(549px,1149.600000px);animation-timing-function: cubic-bezier(0.560000,0,0.440000,0.995000)} 90.909091% {transform: translate(547.635695px,1143.571386px)} 100% {transform: translate(547.635695px,1143.571386px)} }#ewfrn8maxw826_tr {animation: ewfrn8maxw826_tr__tr 1100ms linear infinite alternate forwards}@keyframes ewfrn8maxw826_tr__tr { 0% {transform: rotate(0deg);animation-timing-function: cubic-bezier(0.560000,0,0.440000,0.995000)} 90.909091% {transform: rotate(30deg)} 100% {transform: rotate(30deg)} }#ewfrn8maxw828_to {animation: ewfrn8maxw828_to__to 1100ms linear infinite alternate forwards}@keyframes ewfrn8maxw828_to__to { 0% {transform: translate(549px,1149.600000px);animation-timing-function: cubic-bezier(0.560000,0,0.440000,0.995000)} 90.909091% {transform: translate(550.807398px,1143.571386px)} 100% {transform: translate(550.807398px,1143.571386px)} }#ewfrn8maxw828_tr {animation: ewfrn8maxw828_tr__tr 1100ms linear infinite alternate forwards}@keyframes ewfrn8maxw828_tr__tr { 0% {transform: rotate(0deg);animation-timing-function: cubic-bezier(0.560000,0,0.440000,0.995000)} 90.909091% {transform: rotate(-30deg)} 100% {transform: rotate(-30deg)} }#ewfrn8maxw830_ts {animation: ewfrn8maxw830_ts__ts 1100ms linear infinite alternate forwards}@keyframes ewfrn8maxw830_ts__ts { 0% {transform: translate(549.002000px,1149.600000px) scale(1,1);animation-timing-function: cubic-bezier(0.560000,0,0.440000,0.995000)} 45.454545% {transform: translate(549.002000px,1149.600000px) scale(0,0)} 100% {transform: translate(549.002000px,1149.600000px) scale(0,0)} }#ewfrn8maxw837_to {animation: ewfrn8maxw837_to__to 1100ms linear infinite alternate forwards}@keyframes ewfrn8maxw837_to__to { 0% {transform: translate(0px,0px);animation-timing-function: cubic-bezier(0.560000,0,0.440000,0.995000)} 90.909091% {transform: translate(25.137525px,0px)} 100% {transform: translate(25.137525px,0px)} }#ewfrn8maxw839_to {animation: ewfrn8maxw839_to__to 1100ms linear infinite alternate forwards}@keyframes ewfrn8maxw839_to__to { 0% {transform: translate(549px,1124.600000px);animation-timing-function: cubic-bezier(0.560000,0,0.440000,0.995000)} 90.909091% {transform: translate(578.298677px,1098.044667px)} 100% {transform: translate(578.298677px,1098.044667px)} }#ewfrn8maxw839_tr {animation: ewfrn8maxw839_tr__tr 1100ms linear infinite alternate forwards}@keyframes ewfrn8maxw839_tr__tr { 0% {transform: rotate(0deg)} 90.909091% {transform: rotate(90deg)} 100% {transform: rotate(90deg)} }#ewfrn8maxw839_ts {animation: ewfrn8maxw839_ts__ts 1100ms linear infinite alternate forwards}@keyframes ewfrn8maxw839_ts__ts { 0% {transform: scale(1,1);animation-timing-function: cubic-bezier(0.560000,0,0.440000,0.995000)} 90.909091% {transform: scale(2.124338,0.617087)} 100% {transform: scale(2.124338,0.617087)} }]]></style><g id="ewfrn8maxw82" transform="matrix(1 0 0 1 -431.86000000000001 -924.59799999999996)" clip-rule="evenodd"><g id="ewfrn8maxw83" transform="matrix(1 0 0 1 431.86000000000001 924.59799999999996)" clip-rule="evenodd"><rect id="ewfrn8maxw84" width="400" height="400" rx="0" ry="0" clip-rule="evenodd" fill="none" fill-rule="evenodd" stroke="none" stroke-width="1" stroke-linejoin="round" stroke-miterlimit="2"/><g id="ewfrn8maxw85" transform="matrix(1 0 0 1 -2.36296000000000 0)" clip-rule="evenodd"><g id="ewfrn8maxw86" transform="matrix(1 0 0 1 -5 0)" clip-rule="evenodd"><g id="ewfrn8maxw87" transform="matrix(0.98614700000000 0 0 1 -424.49200000000002 -924.59799999999996)" clip-rule="evenodd"><rect id="ewfrn8maxw88" width="10.140000" height="50" rx="0" ry="0" transform="matrix(1 0 0 1 531.86000000000001 1099.59999999999991)" clip-rule="evenodd" fill="rgb(88,88,88)" fill-rule="evenodd" stroke="none" stroke-width="1" stroke-linejoin="round" stroke-miterlimit="2"/></g><g id="ewfrn8maxw89" transform="matrix(-0.50000000000000 0.86602500000000 -0.83857900000000 -0.48415400000000 1345.10999999999990 259.55000000000001)" clip-rule="evenodd"><g id="ewfrn8maxw810_to" transform="translate(549.110746,1149.798096)"><g id="ewfrn8maxw810_tr" transform="rotate(0)"><g id="ewfrn8maxw810_ts" transform="scale(1,1)"><path id="ewfrn8maxw810" d="M554,1102.180000C554,1100.760000,552.880000,1099.600000,551.500000,1099.600000L546.500000,1099.600000C545.120000,1099.600000,544,1100.760000,544,1102.180000L544,1147.020000C544,1148.440000,545.120000,1149.600000,546.500000,1149.600000L551.500000,1149.600000C552.880000,1149.600000,554,1148.440000,554,1147.020000L554,1102.180000Z" transform="translate(-548.958980,-1149.772845)" clip-rule="evenodd" fill="rgb(88,88,88)" fill-rule="evenodd" stroke="none" stroke-width="1" stroke-linejoin="round" stroke-miterlimit="2"/></g></g></g></g><g id="ewfrn8maxw811" transform="matrix(0.50000000000000 0.86602500000000 -0.84284700000000 0.48661800000000 800.79499999999996 -813.27800000000002)" clip-rule="evenodd"><g id="ewfrn8maxw812_to" transform="translate(549,1149.600000)"><g id="ewfrn8maxw812_tr" transform="rotate(0)"><g id="ewfrn8maxw812_ts" transform="scale(1,1)"><path id="ewfrn8maxw812" d="M554,1102.170000C554,1100.750000,552.880000,1099.600000,551.500000,1099.600000L546.500000,1099.600000C545.120000,1099.600000,544,1100.750000,544,1102.170000L544,1147.030000C544,1148.450000,545.120000,1149.600000,546.500000,1149.600000L551.500000,1149.600000C552.880000,1149.600000,554,1148.450000,554,1147.030000L554,1102.170000Z" transform="translate(-549,-1149.600000)" clip-rule="evenodd" fill="rgb(88,88,88)" fill-rule="evenodd" stroke="none" stroke-width="1" stroke-linejoin="round" stroke-miterlimit="2"/></g></g></g></g></g><g id="ewfrn8maxw813" clip-rule="evenodd"><g id="ewfrn8maxw814" transform="matrix(0.98614700000000 0 0 1 -374.49200000000002 -924.59799999999996)" clip-rule="evenodd"><rect id="ewfrn8maxw815" width="10.140000" height="50" rx="0" ry="0" transform="matrix(1 0 0 1 531.86000000000001 1099.59999999999991)" clip-rule="evenodd" fill="rgb(88,88,88)" fill-rule="evenodd" stroke="none" stroke-width="1" stroke-linejoin="round" stroke-miterlimit="2"/></g><g id="ewfrn8maxw816" transform="matrix(0 1 -0.96830800000000 0 1264.75000000000000 -369)" clip-rule="evenodd"><path id="ewfrn8maxw817" d="M554,1102.180000C554,1100.760000,552.880000,1099.600000,551.500000,1099.600000L546.500000,1099.600000C545.120000,1099.600000,544,1100.760000,544,1102.180000L544,1147.020000C544,1148.440000,545.120000,1149.600000,546.500000,1149.600000L551.500000,1149.600000C552.880000,1149.600000,554,1148.440000,554,1147.020000L554,1102.180000Z" clip-rule="evenodd" fill="rgb(88,88,88)" fill-rule="evenodd" stroke="none" stroke-width="1" stroke-linejoin="round" stroke-miterlimit="2"/></g><g id="ewfrn8maxw818" transform="matrix(0 1 -0.96830800000000 0 1264.75000000000000 -329)" clip-rule="evenodd"><path id="ewfrn8maxw819" d="M554,1102.180000C554,1100.760000,552.880000,1099.600000,551.500000,1099.600000L546.500000,1099.600000C545.120000,1099.600000,544,1100.760000,544,1102.180000L544,1147.020000C544,1148.440000,545.120000,1149.600000,546.500000,1149.600000L551.500000,1149.600000C552.880000,1149.600000,554,1148.440000,554,1147.020000L554,1102.180000Z" clip-rule="evenodd" fill="rgb(88,88,88)" fill-rule="evenodd" stroke="none" stroke-width="1" stroke-linejoin="round" stroke-miterlimit="2"/></g><g id="ewfrn8maxw820_to" transform="translate(164.861822,199.999000)"><g id="ewfrn8maxw820_tr" transform="rotate(90)"><g id="ewfrn8maxw820_ts" transform="scale(1,0.531117)"><g id="ewfrn8maxw820" transform="translate(-549,-1124.599976)" clip-rule="evenodd"><path id="ewfrn8maxw821" d="M554,1104.310000C554,1101.710000,552.880000,1099.600000,551.500000,1099.600000L546.500000,1099.600000C545.120000,1099.600000,544,1101.710000,544,1104.310000L544,1144.890000C544,1147.490000,545.120000,1149.600000,546.500000,1149.600000L551.500000,1149.600000C552.880000,1149.600000,554,1147.490000,554,1144.890000L554,1104.310000Z" clip-rule="evenodd" fill="rgb(88,88,88)" fill-rule="evenodd" stroke="none" stroke-width="1" stroke-linejoin="round" stroke-miterlimit="2"/></g></g></g></g></g><g id="ewfrn8maxw822" transform="matrix(1 0 0 1 55 0)" clip-rule="evenodd"><g id="ewfrn8maxw823" transform="matrix(0.98614700000000 0 0 1 -374.49200000000002 -924.59799999999996)" clip-rule="evenodd"><rect id="ewfrn8maxw824" width="10.140000" height="50" rx="0" ry="0" transform="matrix(1 0 0 1 531.86000000000001 1099.59999999999991)" clip-rule="evenodd" fill="rgb(88,88,88)" fill-rule="evenodd" stroke="none" stroke-width="1" stroke-linejoin="round" stroke-miterlimit="2"/></g><g id="ewfrn8maxw825" transform="matrix(0 1 -0.96830800000000 0 1264.75000000000000 -369)" clip-rule="evenodd"><g id="ewfrn8maxw826_to" transform="translate(549,1149.600000)"><g id="ewfrn8maxw826_tr" transform="rotate(0)"><path id="ewfrn8maxw826" d="M554,1102.180000C554,1100.760000,552.880000,1099.600000,551.500000,1099.600000L546.500000,1099.600000C545.120000,1099.600000,544,1100.760000,544,1102.180000L544,1147.020000C544,1148.440000,545.120000,1149.600000,546.500000,1149.600000L551.500000,1149.600000C552.880000,1149.600000,554,1148.440000,554,1147.020000L554,1102.180000Z" transform="translate(-549,-1149.600000)" clip-rule="evenodd" fill="rgb(88,88,88)" fill-rule="evenodd" stroke="none" stroke-width="1" stroke-linejoin="round" stroke-miterlimit="2"/></g></g></g><g id="ewfrn8maxw827" transform="matrix(0 1 -0.96830800000000 0 1264.75000000000000 -329)" clip-rule="evenodd"><g id="ewfrn8maxw828_to" transform="translate(549,1149.600000)"><g id="ewfrn8maxw828_tr" transform="rotate(0)"><path id="ewfrn8maxw828" d="M554,1102.180000C554,1100.760000,552.880000,1099.600000,551.500000,1099.600000L546.500000,1099.600000C545.120000,1099.600000,544,1100.760000,544,1102.180000L544,1147.020000C544,1148.440000,545.120000,1149.600000,546.500000,1149.600000L551.500000,1149.600000C552.880000,1149.600000,554,1148.440000,554,1147.020000L554,1102.180000Z" transform="translate(-549,-1149.600000)" clip-rule="evenodd" fill="rgb(88,88,88)" fill-rule="evenodd" stroke="none" stroke-width="1" stroke-linejoin="round" stroke-miterlimit="2"/></g></g></g><g id="ewfrn8maxw829" transform="matrix(0 1 -0.53111700000000 0 762.15599999999995 -349)" clip-rule="evenodd"><g id="ewfrn8maxw830_ts" transform="translate(549.002000,1149.600000) scale(1,1)"><path id="ewfrn8maxw830" d="M554,1104.310000C554,1101.710000,552.880000,1099.600000,551.500000,1099.600000L546.500000,1099.600000C545.120000,1099.600000,544,1101.710000,544,1104.310000L544,1144.890000C544,1147.490000,545.120000,1149.600000,546.500000,1149.600000L551.500000,1149.600000C552.880000,1149.600000,554,1147.490000,554,1144.890000L554,1104.310000Z" transform="translate(-549.002000,-1149.600000)" clip-rule="evenodd" fill="rgb(88,88,88)" fill-rule="evenodd" stroke="none" stroke-width="1" stroke-linejoin="round" stroke-miterlimit="2"/></g></g></g><g id="ewfrn8maxw831" transform="matrix(1 0 0 1 60 0)" clip-rule="evenodd"><g id="ewfrn8maxw832" transform="matrix(0.98614700000000 0 0 1 -324.49200000000002 -924.59799999999996)" clip-rule="evenodd"><rect id="ewfrn8maxw833" width="10.140000" height="50" rx="0" ry="0" transform="matrix(1 0 0 1 531.86000000000001 1099.59999999999991)" clip-rule="evenodd" fill="rgb(88,88,88)" fill-rule="evenodd" stroke="none" stroke-width="1" stroke-linejoin="round" stroke-miterlimit="2"/></g><g id="ewfrn8maxw834" transform="matrix(0 1 -0.96830800000000 0 1314.48000000000002 -369)" clip-rule="evenodd"><path id="ewfrn8maxw835" d="M554,1102.180000C554,1100.760000,552.880000,1099.600000,551.500000,1099.600000L546.500000,1099.600000C545.120000,1099.600000,544,1100.760000,544,1102.180000L544,1147.020000C544,1148.440000,545.120000,1149.600000,546.500000,1149.600000L551.500000,1149.600000C552.880000,1149.600000,554,1148.440000,554,1147.020000L554,1102.180000Z" clip-rule="evenodd" fill="rgb(88,88,88)" fill-rule="evenodd" stroke="none" stroke-width="1" stroke-linejoin="round" stroke-miterlimit="2"/></g><g id="ewfrn8maxw836" transform="matrix(0 1 -0.96830800000000 0 1314.48000000000002 -354)" clip-rule="evenodd"><g id="ewfrn8maxw837_to" transform="translate(0,0)"><path id="ewfrn8maxw837" d="M554,1102.180000C554,1100.760000,552.880000,1099.600000,551.500000,1099.600000L546.500000,1099.600000C545.120000,1099.600000,544,1100.760000,544,1102.180000L544,1147.020000C544,1148.440000,545.120000,1149.600000,546.500000,1149.600000L551.500000,1149.600000C552.880000,1149.600000,554,1148.440000,554,1147.020000L554,1102.180000Z" transform="translate(0,0)" clip-rule="evenodd" fill="rgb(88,88,88)" fill-rule="evenodd" stroke="none" stroke-width="1" stroke-linejoin="round" stroke-miterlimit="2"/></g></g><g id="ewfrn8maxw838" transform="matrix(-1 0 -0 -0.50000000000000 793.72600000000000 749.79899999999998)" clip-rule="evenodd"><g id="ewfrn8maxw839_to" transform="translate(549,1124.600000)"><g id="ewfrn8maxw839_tr" transform="rotate(0)"><g id="ewfrn8maxw839_ts" transform="scale(1,1)"><path id="ewfrn8maxw839" d="M554,1104.600000C554,1101.840000,552.880000,1099.600000,551.500000,1099.600000L546.500000,1099.600000C545.120000,1099.600000,544,1101.840000,544,1104.600000L544,1144.600000C544,1147.360000,545.120000,1149.600000,546.500000,1149.600000L551.500000,1149.600000C552.880000,1149.600000,554,1147.360000,554,1144.600000L554,1104.600000Z" transform="translate(-549,-1124.600000)" clip-rule="evenodd" fill="rgb(88,88,88)" fill-rule="evenodd" stroke="none" stroke-width="1" stroke-linejoin="round" stroke-miterlimit="2"/></g></g></g></g></g></g></g></g></svg>